<?xml version="1.0" encoding="utf-8"?>
<!-- Generator: Adobe Illustrator 19.2.1, SVG Export Plug-In . SVG Version: 6.00 Build 0)  -->
<svg version="1.1" id="Layer_1" xmlns="http://www.w3.org/2000/svg" xmlns:xlink="http://www.w3.org/1999/xlink" x="0px" y="0px"
	 viewBox="0 0 325.9 27" style="enable-background:new 0 0 325.9 27;" xml:space="preserve">
<style type="text/css">
	.st0{fill:#E83E3E;}
</style>
<g>
	<polygon class="st0" points="22.5,20 15.2,0.1 0,0.1 0,26.1 5.8,26.1 5.8,5.9 11.1,5.9 18.6,26.1 26.4,26.1 34.1,5.9 39.3,5.9 
		39.3,26.1 45.1,26.1 45.1,0.1 30.1,0.1 	"/>
	<polygon class="st0" points="310.9,0.1 303.3,20 296,0.1 280.8,0.1 280.8,26.1 286.6,26.1 286.6,5.9 291.9,5.9 299.4,26.1 
		307.2,26.1 314.9,5.9 320.1,5.9 320.1,26.1 325.9,26.1 325.9,0.1 	"/>
	<path class="st0" d="M58.8,0.1l-9.2,26.1h6.2l2.2-6.3h14.5l2.1,6.3h6.2L72.1,0.1H58.8z M60.1,14L63,5.9h4.9l2.7,8.1H60.1z"/>
	<polygon class="st0" points="270.2,18 267.9,20.3 249.8,20.3 247.5,18 247.5,0.1 241.6,0.1 241.6,20.4 247.4,26.1 270.3,26.1 
		276,20.4 276,0.1 270.2,0.1 	"/>
	<polygon class="st0" points="138.2,9.9 138.2,15.8 138.2,20.4 143.9,26.1 164.8,26.1 164.8,20.3 146.3,20.3 144,18 144,15.8 
		164.8,15.8 164.8,9.9 144,9.9 144,5.9 164.8,5.9 164.8,0.1 138.2,0.1 	"/>
	<polygon class="st0" points="118.7,0.1 110,0.1 110,5.9 118.7,5.9 118.7,26.1 124.5,26.1 124.5,5.9 133.8,5.9 133.8,0.1 124.5,0.1 
			"/>
	<polygon class="st0" points="90.9,0.1 82.2,0.1 82.2,5.9 90.9,5.9 90.9,26.1 96.7,26.1 96.7,5.9 106,5.9 106,0.1 96.7,0.1 	"/>
	<polygon class="st0" points="209.9,9.9 209.9,15.8 209.9,20.4 215.7,26.1 236.3,26.1 236.3,20.3 218.1,20.3 215.8,18 215.8,15.8 
		236.3,15.8 236.3,9.9 215.8,9.9 215.8,5.9 236.3,5.9 236.3,0.1 209.9,0.1 	"/>
	<path class="st0" d="M204.7,10.7V5l-5-5h-29.5v26.1h5.8V15.8h21.2l1.7,1.7v8.7h5.8V15l-2.2-2.2L204.7,10.7z M176,5.8h21.2l1.6,1.6
		v0.8l-0.4,0.4v0l-1.2,1.2H176V5.8z"/>
</g>
</svg>
